<svg viewBox="0 0 74 88" fill="none" xmlns="http://www.w3.org/2000/svg">
<path d="M61.4083 84.02C56.6716 88.6117 51.5 87.8867 46.5216 85.7117C41.2533 83.4883 36.42 83.3917 30.8616 85.7117C23.9016 88.7083 20.2283 87.8383 16.0716 84.02C-7.51502 59.7083 -4.03502 22.685 22.7416 21.3317C29.2666 21.67 33.81 24.9083 37.6283 25.1983C43.3316 24.0383 48.7933 20.7033 54.8833 21.1383C62.1816 21.7183 67.6916 24.6183 71.3166 29.8383C56.2366 38.8767 59.8133 58.7417 73.6366 64.3C70.8816 71.55 67.305 78.7517 61.36 84.0683L61.4083 84.02ZM37.145 21.0417C36.42 10.2633 45.1683 1.37 55.2216 0.5C56.6233 12.97 43.9116 22.25 37.145 21.0417Z" fill="#111111"/>
</svg>
