<svg viewBox="0 0 88 88" fill="none" xmlns="http://www.w3.org/2000/svg">
<g clip-path="url(#clip0_411_520)">
<path d="M88 44C88 19.6996 68.3004 0 44 0C19.6996 0 0 19.6996 0 44C0 65.9615 16.0903 84.1648 37.125 87.4655V56.7188H25.9531V44H37.125V34.3063C37.125 23.2788 43.6941 17.1875 53.7446 17.1875C58.5585 17.1875 63.5938 18.0469 63.5938 18.0469V28.875H58.0456C52.5797 28.875 50.875 32.2668 50.875 35.7466V44H63.0781L61.1273 56.7188H50.875V87.4655C71.9098 84.1648 88 65.9618 88 44Z" fill="#1877F2"/>
<path d="M61.1273 56.7188L63.0781 44H50.875V35.7466C50.875 32.2664 52.5797 28.875 58.0456 28.875H63.5938V18.0469C63.5938 18.0469 58.5585 17.1875 53.7443 17.1875C43.6941 17.1875 37.125 23.2788 37.125 34.3063V44H25.9531V56.7188H37.125V87.4655C39.3993 87.8218 41.6979 88.0005 44 88C46.3021 88.0005 48.6007 87.8218 50.875 87.4655V56.7188H61.1273Z" fill="white"/>
</g>
<defs>
<clipPath id="clip0_411_520">
<rect width="88" height="88" fill="white"/>
</clipPath>
</defs>
</svg>
