<svg width="180" height="177" viewBox="0 0 180 177" fill="none" xmlns="http://www.w3.org/2000/svg">
<path d="M60.5858 10.0977C53.9556 10.0977 47.3903 11.4036 41.2648 13.9408C35.1393 16.4781 29.5736 20.197 24.8853 24.8853C15.4169 34.3537 10.0977 47.1955 10.0977 60.5858C10.0977 82.9016 24.5878 101.835 44.6316 108.55C47.156 108.954 47.9638 107.388 47.9638 106.025V97.4927C33.9786 100.522 30.9998 90.7273 30.9998 90.7273C28.6773 84.8706 25.3956 83.3055 25.3956 83.3055C20.8011 80.1752 25.749 80.2762 25.749 80.2762C30.7978 80.6296 33.4737 85.4765 33.4737 85.4765C37.8662 93.1507 45.2879 90.8787 48.1657 89.667C48.6201 86.3853 49.9328 84.1638 51.3465 82.9016C40.1381 81.6394 28.3744 77.2974 28.3744 58.0614C28.3744 52.4572 30.2929 47.9638 33.5747 44.3791C33.0698 43.1169 31.3027 37.8662 34.0795 31.0502C34.0795 31.0502 38.3205 29.6871 47.9638 36.2C51.9524 35.0893 56.2943 34.5339 60.5858 34.5339C64.8773 34.5339 69.2193 35.0893 73.2079 36.2C82.8511 29.6871 87.0921 31.0502 87.0921 31.0502C89.869 37.8662 88.1019 43.1169 87.597 44.3791C90.8787 47.9638 92.7973 52.4572 92.7973 58.0614C92.7973 77.3479 80.9831 81.5889 69.7242 82.8511C71.5418 84.4163 73.2079 87.496 73.2079 92.1914V106.025C73.2079 107.388 74.0157 109.004 76.5906 108.55C96.6344 101.784 111.074 82.9016 111.074 60.5858C111.074 53.9556 109.768 47.3904 107.231 41.2648C104.694 35.1393 100.975 29.5736 96.2864 24.8853C91.5981 20.197 86.0323 16.4781 79.9068 13.9408C73.7813 11.4036 67.216 10.0977 60.5858 10.0977Z" fill="black"/>
<g clip-path="url(#clip0_422_620)">
<path d="M177.388 122.54L133.897 79.0648C133.301 78.4677 132.594 77.994 131.815 77.6708C131.036 77.3475 130.201 77.1812 129.358 77.1812C128.514 77.1812 127.679 77.3475 126.9 77.6708C126.122 77.994 125.414 78.4677 124.818 79.0648L115.805 88.0935L127.265 99.5374C128.611 99.0807 130.058 99.0104 131.442 99.3344C132.826 99.6585 134.092 100.364 135.095 101.371C137.237 103.512 137.834 106.59 136.928 109.248L147.952 120.287C149.303 119.817 150.759 119.737 152.152 120.058C153.546 120.379 154.821 121.088 155.829 122.101C158.83 125.083 158.83 129.913 155.829 132.898C155.122 133.607 154.282 134.169 153.357 134.553C152.432 134.936 151.44 135.134 150.439 135.134C149.437 135.134 148.446 134.936 147.521 134.553C146.596 134.169 145.756 133.607 145.048 132.898C143.986 131.835 143.26 130.483 142.96 129.011C142.66 127.538 142.8 126.01 143.361 124.616L133.035 114.339V141.426C133.763 141.784 134.46 142.269 135.061 142.87C138.027 145.87 138.027 150.682 135.061 153.666C133.623 155.098 131.677 155.902 129.647 155.902C127.618 155.902 125.671 155.098 124.233 153.666C123.344 152.776 122.688 151.68 122.324 150.475C121.96 149.27 121.9 147.994 122.149 146.761C122.397 145.527 122.947 144.374 123.749 143.404C124.551 142.434 125.58 141.678 126.745 141.202V113.857C125.816 113.462 124.969 112.896 124.249 112.189C123.178 111.121 122.45 109.757 122.158 108.273C121.867 106.789 122.025 105.251 122.612 103.857L111.361 92.5441L81.536 122.354C80.3437 123.564 79.6753 125.194 79.6753 126.893C79.6753 128.592 80.3437 130.222 81.536 131.432L125.027 174.908C125.623 175.505 126.33 175.978 127.109 176.302C127.888 176.625 128.723 176.791 129.566 176.791C130.41 176.791 131.245 176.625 132.024 176.302C132.802 175.978 133.51 175.505 134.106 174.908L177.385 131.628C177.982 131.033 178.456 130.325 178.779 129.546C179.102 128.767 179.269 127.932 179.269 127.089C179.269 126.246 179.102 125.411 178.779 124.632C178.456 123.853 177.982 123.145 177.385 122.55L177.388 122.54Z" fill="#C43C3C"/>
</g>
<defs>
<clipPath id="clip0_422_620">
<rect width="99.5931" height="99.5931" fill="white" transform="translate(79.6748 77.1846)"/>
</clipPath>
</defs>
</svg>
