<svg viewBox="0 0 90 90" fill="none" xmlns="http://www.w3.org/2000/svg">
<path d="M28.9137 2.72986C20.6207 5.60677 13.4689 11.0672 8.50863 18.3092C3.54839 25.5512 1.04123 34.193 1.3554 42.9652C1.66958 51.7374 4.78853 60.1776 10.2541 67.0462C15.7197 73.9148 23.2439 78.8497 31.7215 81.126C38.5944 82.8994 45.7952 82.9773 52.7049 81.3529C58.9644 79.9469 64.7514 76.9394 69.4994 72.6249C74.441 67.9973 78.0279 62.1104 79.8744 55.597C81.8815 48.5139 82.2386 41.065 80.9184 33.8224H42.3234V49.8324H64.6751C64.2283 52.3858 63.2711 54.8229 61.8605 56.9978C60.45 59.1727 58.6151 61.0406 56.4658 62.4899C53.7364 64.2953 50.6597 65.5101 47.4331 66.0563C44.197 66.658 40.8778 66.658 37.6417 66.0563C34.3618 65.3781 31.2591 64.0244 28.5311 62.0813C24.1487 58.9791 20.858 54.5719 19.1288 49.4887C17.3703 44.3102 17.3703 38.6961 19.1288 33.5177C20.3597 29.8878 22.3946 26.5829 25.0815 23.8495C28.1563 20.664 32.0491 18.387 36.3329 17.2683C40.6166 16.1496 45.1257 16.2325 49.3654 17.5077C52.6775 18.5244 55.7062 20.3008 58.2101 22.6952C60.7304 20.188 63.2463 17.6742 65.7579 15.1539C67.0548 13.7987 68.4684 12.5083 69.7458 11.1206C65.9237 7.5638 61.4373 4.79615 56.5436 2.97626C47.6322 -0.259507 37.8815 -0.346465 28.9137 2.72986Z" fill="white"/>
<path d="M28.9139 2.72983C37.8809 -0.348578 47.6317 -0.263909 56.5439 2.96976C61.4384 4.802 65.9228 7.58299 69.7396 11.153C68.4427 12.5407 67.0745 13.8376 65.7517 15.1863C63.2357 17.6979 60.722 20.2009 58.2103 22.6952C55.7064 20.3008 52.6777 18.5244 49.3657 17.5077C45.1273 16.228 40.6184 16.1403 36.3335 17.2545C32.0486 18.3686 28.1534 20.6414 25.0752 23.8235C22.3883 26.5569 20.3534 29.8619 19.1225 33.4917L5.68042 23.0843C10.4919 13.5429 18.8226 6.24452 28.9139 2.72983Z" fill="#E33629"/>
<path d="M2.11386 33.3946C2.83636 29.8139 4.03585 26.3463 5.68026 23.0845L19.1224 33.5178C17.3639 38.6963 17.3639 44.3104 19.1224 49.4888C14.6438 52.9472 10.1631 56.4228 5.68026 59.9157C1.56366 51.7215 0.308172 42.3852 2.11386 33.3946Z" fill="#F8BD00"/>
<path d="M42.3234 33.8159H80.9184C82.2386 41.0585 81.8815 48.5074 79.8745 55.5905C78.0279 62.1039 74.4411 67.9908 69.4995 72.6184C65.1614 69.2336 60.8039 65.8747 56.4659 62.4898C58.6166 61.0391 60.4523 59.1691 61.8629 56.9919C63.2735 54.8147 64.23 52.3751 64.6751 49.8194H42.3234C42.317 44.4892 42.3234 39.1526 42.3234 33.8159Z" fill="#587DBD"/>
<path d="M5.67383 59.9156C10.1567 56.4573 14.6374 52.9817 19.1159 49.4888C20.8486 54.5738 24.144 58.9812 28.5312 62.0814C31.2677 64.0155 34.3771 65.3582 37.6613 66.0239C40.8973 66.6256 44.2166 66.6256 47.4527 66.0239C50.6793 65.4778 53.756 64.263 56.4854 62.4575C60.8234 65.8424 65.1809 69.2013 69.519 72.5861C64.7717 76.9029 58.9846 79.9127 52.7245 81.3206C45.8148 82.9449 38.614 82.8671 31.741 81.0936C26.3052 79.6422 21.2277 77.0836 16.827 73.5782C12.169 69.8801 8.36455 65.2197 5.67383 59.9156Z" fill="#319F43"/>
</svg>
