<svg width="118" height="118" viewBox="0 0 118 118" fill="none" xmlns="http://www.w3.org/2000/svg">
<path d="M25.1072 12.8003C18.4909 12.8003 13.5966 18.5934 13.8151 24.8759C14.0253 30.9105 13.7524 38.728 11.7842 45.1019C9.81143 51.496 6.47424 55.5366 1.02319 56.0565V61.9445C6.47424 62.4635 9.81143 66.505 11.7842 72.8992C13.7524 79.273 14.0244 87.0905 13.8151 93.1251C13.5957 99.4077 18.4909 105.2 25.1072 105.2H92.9019C99.5182 105.2 104.412 99.4068 104.194 93.1251C103.984 87.0905 104.257 79.273 106.224 72.8992C108.197 66.506 111.526 62.4645 116.977 61.9445V56.0565C111.526 55.5375 108.198 51.496 106.224 45.1019C104.257 38.728 103.984 30.9105 104.194 24.8759C104.412 18.5934 99.5182 12.8003 92.9009 12.8003H25.1072ZM78.681 69.6671C78.681 78.3179 72.2261 83.5625 61.5148 83.5625H41.7664C41.7069 83.5626 41.648 83.551 41.593 83.5283C41.538 83.5056 41.4881 83.4722 41.446 83.4302C41.404 83.3881 41.3707 83.3382 41.3479 83.2832C41.3252 83.2282 41.3136 83.1693 41.3137 83.1099V34.8718C41.3135 34.8123 41.325 34.7533 41.3477 34.6982C41.3703 34.6431 41.4036 34.593 41.4457 34.5509C41.4878 34.5087 41.5378 34.4753 41.5928 34.4526C41.6478 34.4298 41.7068 34.4181 41.7664 34.4183H61.4106C70.3427 34.4183 76.2039 39.2544 76.2039 46.6792C76.2039 51.8906 72.2611 56.5552 67.2369 57.3729V57.6458C74.0753 58.3953 78.681 63.1291 78.681 69.6671ZM59.5263 40.6511H49.1294V55.3292H57.8872C64.6556 55.3292 68.3883 52.605 68.3883 47.7347C68.3883 43.1715 65.1792 40.6511 59.5263 40.6511ZM49.1294 61.1536V77.3306H59.9107C66.9585 77.3306 70.692 74.5042 70.692 69.1905C70.692 63.8777 66.8543 61.1536 59.4572 61.1536H49.1294Z" fill="#9747FF"/>
</svg>
