<svg width="100" height="101" viewBox="0 0 100 101" fill="none" xmlns="http://www.w3.org/2000/svg">
<path d="M90.4165 27.4804C90.4582 27.5646 90.4582 27.6908 90.4582 27.8171V45.8708C90.4582 46.2917 90.2082 46.7967 89.8332 47.0071L74.7915 55.7604V73.0567C74.7915 73.5196 74.5832 73.9404 74.1665 74.1929L42.8332 92.415C42.7498 92.4571 42.6665 92.5833 42.5832 92.5833H41.6665C41.6665 92.5833 41.6665 92.4571 41.4998 92.415L10.1665 74.1929C9.97586 74.0722 9.81857 73.9047 9.70929 73.706C9.6 73.5073 9.54228 73.2839 9.5415 73.0567V18.9375C9.5415 18.7271 9.5415 18.6008 9.58317 18.5167C9.58317 18.4746 9.62484 18.4325 9.62484 18.3904C9.62484 18.3062 9.6665 18.2642 9.70817 18.18C9.70817 18.1379 9.74984 18.0958 9.7915 18.0537L9.9165 17.9275L10.0415 17.8012C10.0832 17.7592 10.1248 17.7171 10.1665 17.7171L25.8332 8.58499C26.2498 8.41666 26.7498 8.41666 27.0832 8.58499L42.8332 17.7171C42.8748 17.7592 42.9165 17.7592 42.9582 17.8012L43.0832 17.9275L43.2082 18.0537C43.2498 18.0958 43.2915 18.1379 43.2915 18.18C43.3332 18.2642 43.3748 18.3062 43.3748 18.3904C43.3748 18.4325 43.4165 18.4746 43.4165 18.5167C43.4582 18.6429 43.4582 18.7271 43.4582 18.9375V52.6042L56.5415 45.1133V27.8171C56.5415 27.6908 56.5415 27.5646 56.5832 27.4804L56.6248 27.3542C56.6248 27.3542 56.6665 27.2279 56.7082 27.1437C56.7082 27.1017 56.7498 27.0596 56.7915 27.0175L56.9165 26.8912L57.0415 26.765C57.0832 26.7229 57.1248 26.6808 57.1665 26.6808L72.9165 17.5487C73.2498 17.2962 73.7498 17.2962 74.1665 17.5487L89.8332 26.6808C89.8748 26.6808 89.9165 26.7229 89.9582 26.765L90.0832 26.8912L90.2082 27.0175C90.2498 27.0596 90.2498 27.1017 90.2915 27.1437C90.3332 27.2279 90.3332 27.3542 90.3748 27.3542C90.4165 27.3542 90.4165 27.3542 90.4165 27.4804ZM87.8748 45.1133V30.0896L74.7915 37.6646V52.6042L87.8748 45.1133ZM72.2082 72.2992V57.2333L43.4582 73.8142V89.0062L72.2082 72.2992ZM12.1248 21.0417V72.2992L40.8748 89.0062V73.8142L25.8748 65.2292H25.8332C25.7915 65.2292 25.7498 65.2292 25.7082 65.1029C25.6665 65.1029 25.6248 65.0608 25.5832 65.0187L25.4582 64.8925C25.4165 64.8504 25.4165 64.8083 25.3748 64.7662C25.3332 64.6821 25.3332 64.64 25.2915 64.5979C25.2915 64.5137 25.2498 64.4717 25.2498 64.4296C25.2082 64.3875 25.2082 64.3033 25.2082 64.2612V28.7008L12.1248 21.0417ZM26.4998 11.2783L13.4582 18.9375L26.4998 26.4283L39.5832 18.9375L26.4998 11.2783ZM40.8748 54.2033V21.0417L27.7915 28.7008V61.8204L40.8748 54.2033ZM73.4998 20.2L60.4165 27.8171L73.4998 35.3921L86.5415 27.8171L73.4998 20.2ZM72.2082 37.6646L59.1248 30.0896V45.1133L72.2082 52.6042V37.6646ZM42.1665 71.5417L70.8332 54.9608L57.8332 47.3858L29.1665 64.0929L42.1665 71.5417Z" fill="#C43C3C"/>
</svg>
