<svg viewBox="0 0 84 84" fill="none" xmlns="http://www.w3.org/2000/svg">
<path d="M76.125 1.96881H7.875C6.32645 1.95305 4.8349 2.55224 3.72762 3.63492C2.62035 4.71759 1.98779 6.1953 1.96875 7.74381V76.2694C1.99123 77.8157 2.6253 79.29 3.73221 80.3699C4.83911 81.4497 6.3287 82.0471 7.875 82.0313H76.125C77.6736 82.0436 79.1642 81.4424 80.2709 80.359C81.3776 79.2757 82.0105 77.7983 82.0312 76.2497V7.72412C82.0036 6.18015 81.3677 4.70949 80.2618 3.63178C79.1558 2.55408 77.6692 1.95646 76.125 1.96881Z" fill="#0076B2"/>
<path d="M13.8207 31.979H25.7054V70.2187H13.8207V31.979ZM19.7664 12.9478C21.1295 12.9478 22.462 13.352 23.5953 14.1095C24.7286 14.8669 25.6118 15.9435 26.1331 17.203C26.6544 18.4624 26.7905 19.8483 26.5241 21.1851C26.2577 22.5219 25.6008 23.7497 24.6364 24.7131C23.6721 25.6765 22.4437 26.3323 21.1066 26.5974C19.7695 26.8625 18.3839 26.7251 17.1249 26.2026C15.8659 25.6801 14.7902 24.7958 14.0338 23.6618C13.2775 22.5278 12.8744 21.1949 12.8757 19.8318C12.8775 18.0054 13.6042 16.2545 14.8963 14.9637C16.1883 13.6728 17.94 12.9478 19.7664 12.9478ZM33.1604 31.979H44.5529V37.229H44.7104C46.2985 34.2234 50.1704 31.0537 55.952 31.0537C67.9876 31.0274 70.2189 38.9484 70.2189 49.2187V70.2187H58.3342V51.614C58.3342 47.1843 58.2554 41.4815 52.1589 41.4815C46.0623 41.4815 45.0254 46.3115 45.0254 51.3253V70.2187H33.1604V31.979Z" fill="white"/>
</svg>
