<svg width="219" height="61" viewBox="0 0 219 61" fill="none" xmlns="http://www.w3.org/2000/svg">
<g clip-path="url(#clip0_420_555)">
<path d="M0 14.7624H13.0352L20.6018 34.0964L28.2797 14.7624H40.9834L21.8722 60.5918H9.11331L14.3608 48.4732L0 14.7624ZM54.1837 13.9912C44.4074 13.9912 38.2215 22.7496 38.2215 31.4525C38.2215 41.2573 45.0152 49.0244 54.0181 49.0244C60.7567 49.0244 63.2974 44.948 63.2974 44.948V48.1431H74.6751V14.7624H63.2974V17.792C63.2418 17.792 60.4252 13.9912 54.1837 13.9912ZM56.6141 24.7323C61.1433 24.7323 63.4629 28.313 63.4629 31.5076C63.4629 34.9777 60.9778 38.3933 56.6141 38.3933C53.0241 38.3933 49.7652 35.4738 49.7652 31.6731C49.7652 27.8169 52.3615 24.7323 56.6141 24.7323ZM78.5419 48.1431V0H90.4171V17.902C90.4171 17.902 93.2337 13.9912 99.1437 13.9912C106.379 13.9912 110.633 19.3895 110.633 27.046V48.1431H98.8122V29.9105C98.8122 27.3212 97.5974 24.7873 94.7804 24.7873C91.9081 24.7873 90.4171 27.3212 90.4171 29.9105V48.1431H78.5419ZM130.903 13.9916C119.69 13.9916 113.007 22.4744 113.007 31.6185C113.007 41.974 121.071 49.0798 130.958 49.0798C140.514 49.0798 148.854 42.3046 148.854 31.7836C148.854 20.2712 140.071 13.9916 130.903 13.9916ZM131.013 24.7882C134.99 24.7882 137.697 28.0928 137.697 31.563C137.697 34.5375 135.156 38.2282 131.013 38.2282C127.202 38.2282 124.386 35.1987 124.386 31.508C124.386 28.0378 126.705 24.7882 131.013 24.7882ZM168.627 13.9912C157.415 13.9912 150.731 22.474 150.731 31.618C150.731 41.9735 158.796 49.0794 168.683 49.0794C178.238 49.0794 186.578 42.3041 186.578 31.7831C186.578 20.2708 177.851 13.9912 168.627 13.9912ZM168.738 24.7878C172.714 24.7878 175.421 28.0924 175.421 31.5626C175.421 34.5371 172.88 38.2278 168.738 38.2278C164.927 38.2278 162.11 35.1983 162.11 31.5076C162.11 28.0374 164.485 24.7878 168.738 24.7878ZM195.967 33.1047C200.331 33.1047 203.866 36.6299 203.866 40.9818C203.866 45.3328 200.331 48.8584 195.968 48.8584C191.604 48.8584 188.069 45.3332 188.069 40.9818C188.069 36.6303 191.604 33.1047 195.968 33.1047M206.463 30.2402H192.267L204.86 0H219L206.463 30.2402Z" fill="#5F01D1"/>
</g>
<defs>
<clipPath id="clip0_420_555">
<rect width="219" height="61" fill="white"/>
</clipPath>
</defs>
</svg>
