<svg width="133" height="78" viewBox="0 0 133 78" fill="none" xmlns="http://www.w3.org/2000/svg">
<path d="M79.6035 65.5716C74.2447 66.0146 74.7633 62.6236 77.9469 57.6989C85.2071 46.2477 98.6472 30.6898 99.2522 19.3238C100.088 4.56683 87.5408 0 74.6193 0C65.6304 0.272647 56.3246 3.22064 49.9863 5.89599C28.1479 15.0126 14.4629 29.3266 5.77657 45.4298C-3.2123 61.3455 -0.417684 76.6479 19.0006 77.0909C33.6651 76.3752 43.5615 71.5528 53.53 65.4693C53.602 65.4693 25.7999 74.8586 15.5145 67.9743C14.3765 67.2586 13.2529 66.2702 12.9504 63.5097C12.9504 57.8693 20.8157 51.9733 25.4253 50.0989V40.4369C34.7167 44.2881 45.6791 43.2145 55.0569 34.984C55.3594 35.9723 55.6619 37.2163 55.5899 38.5625H57.1745C57.549 34.7114 55.3594 30.9625 51.7293 30.6898C52.7809 31.6782 53.5444 32.4791 53.9189 33.1948L53.7749 33.3652L53.7028 33.4504C41.6168 43.4701 29.891 38.8181 28.7673 38.5455L35.4946 30.758L33.6075 25.1176C46.99 19.5795 58.0244 15.5409 76.3767 11.7068L72.2712 7.78748L74.3888 6.27088C85.2647 9.84937 92.597 12.5247 92.2225 19.3238C92.0784 20.4826 91.6895 21.8288 91.0844 23.2602C87.8433 30.8602 78.3214 43.1123 74.4608 48.3948C71.9687 51.8881 69.4766 55.1087 67.7335 58.3294C65.7744 61.6352 64.7805 64.6855 64.7084 67.446C65.083 89.9053 121.091 56.898 132.125 48.2074C116.034 56.3527 98.5752 64.1402 79.6035 65.5716ZM91.8479 13.9561C92.2513 14.8422 92.4385 15.9328 92.4385 17.2108C92.4241 16.0521 92.2369 14.9445 91.8479 13.9561Z" fill="#FF5F08"/>
</svg>
