<svg width="162" height="65" viewBox="0 0 162 65" fill="none" xmlns="http://www.w3.org/2000/svg">
<g clip-path="url(#clip0_422_639)">
<path d="M31.5001 60.2629V64.7727H0V60.2629H31.5001ZM80.7273 60.2629C77.5676 63.1742 73.4286 64.7845 69.1364 64.7724L36.0001 64.728V60.2629H80.7273ZM127.564 60.2629L125.993 64.7724L124.436 60.2629H127.564ZM112.5 60.2629V64.7727H90.0002V60.2629H112.5ZM162 60.2629V64.7727H139.5V60.2629H162ZM85.8242 51.6544C85.4378 53.2362 84.8282 54.7546 84.0138 56.1638H36.0001V51.6544H85.8242ZM130.58 51.6544L129.001 56.1641H122.999L121.42 51.6544H130.58ZM112.5 51.6544V56.1638H90.0002V51.6544H112.5ZM162 51.6544V56.1638H139.5V51.6544H162ZM31.5001 51.6544V56.1638H0V51.6544H31.5001ZM22.4996 43.0449V47.5546H8.99986V43.0449H22.4996ZM58.4997 43.0449V47.5546H44.9996V43.0449H58.4997ZM85.716 43.0449C86.1148 44.5149 86.3172 46.0313 86.3178 47.5546H71.1819V43.0449H85.716ZM133.596 43.0449L132.016 47.5546H119.983L118.403 43.0449H133.596ZM112.5 43.0449V47.5546H98.9997V43.0449H112.5ZM153 43.0449V47.5546H139.5V43.0449H153ZM22.4996 34.4361V38.9455H8.99986V34.4361H22.4996ZM112.5 34.4361V38.9455H98.9997V34.4361H112.5ZM153 34.4361V38.9455H139.5V34.4361H153ZM80.2549 34.4361C81.7536 35.7135 83.0231 37.2386 84.0084 38.9452H44.9999V34.4357L80.2549 34.4361ZM136.612 34.4361L135.032 38.9455H116.967L115.388 34.4357L136.612 34.4361ZM124.735 25.8272L126 29.4723L127.264 25.8272H152.999V30.3366H139.5V26.1934L138.048 30.3369H113.952L112.5 26.1928V30.3369H99.0004V25.8272H124.735ZM44.9996 25.8272H84.009C83.0236 27.534 81.754 29.0591 80.2552 30.3366H44.9999L44.9996 25.8272ZM22.4996 25.8272V30.3366H8.99986V25.8269L22.4996 25.8272ZM22.4996 17.218V21.7275H8.99986V17.218H22.4996ZM58.4997 17.218V21.7275H44.9996V17.218H58.4997ZM86.3182 17.218C86.3174 18.7413 86.1149 20.2576 85.716 21.7275H71.1819V17.218H86.3182ZM121.747 17.218L123.312 21.7275H99.0004V17.218H121.747ZM152.999 17.218V21.7275H128.687L130.252 17.218H152.999ZM31.4995 8.60887V13.1186H0V8.60855L31.4995 8.60887ZM84.0135 8.60887C84.8279 10.0181 85.4375 11.5365 85.8239 13.1183H35.9994V8.60887H84.0135ZM162 8.60887V13.1183H131.675L133.24 8.60887H162ZM118.76 8.60887L120.325 13.1183H89.9999V8.60887H118.76ZM31.5005 0.000333147V4.50943H0V1.60735e-05L31.5005 0.000333147ZM69.1364 1.60735e-05C73.4274 -0.00586726 77.5642 1.60354 80.7273 4.50943H36.0001V1.60735e-05H69.1364ZM162 1.60735e-05V4.50975H134.663L136.227 0.000333147L162 1.60735e-05ZM115.773 1.60735e-05L117.338 4.50975H90.0002V0.000333147L115.773 1.60735e-05Z" fill="black"/>
</g>
<defs>
<clipPath id="clip0_422_639">
<rect width="162" height="65" fill="white"/>
</clipPath>
</defs>
</svg>
