<svg width="96" height="96" viewBox="0 0 96 96" fill="none" xmlns="http://www.w3.org/2000/svg">
<g clip-path="url(#clip0_402_961)">
<path d="M0 0H96V96H0V0Z" fill="#F7DF1E"/>
<path d="M25.2421 80.2245L32.5883 75.7785C34.0058 78.2914 35.2951 80.4176 38.3877 80.4176C41.3521 80.4176 43.2215 79.2581 43.2215 74.7476V44.0734H52.2428V74.8751C52.2428 84.219 46.7656 88.4722 38.7743 88.4722C31.5575 88.4722 27.3683 84.7346 25.2417 80.2237M57.1429 79.2578L64.4884 75.0049C66.4223 78.1627 68.9356 80.4825 73.3816 80.4825C77.1199 80.4825 79.5034 78.6135 79.5034 76.0357C79.5034 72.9427 77.0547 71.847 72.9304 70.0432L70.6756 69.0757C64.1667 66.3056 59.8493 62.8256 59.8493 55.4794C59.8493 48.7129 65.0044 43.5574 73.0598 43.5574C78.7951 43.5574 82.9193 45.5554 85.8833 50.775L78.8588 55.2862C77.3119 52.5154 75.6372 51.42 73.0594 51.42C70.4172 51.42 68.7417 53.0955 68.7417 55.2862C68.7417 57.9926 70.4172 59.0887 74.2835 60.7642L76.5387 61.7306C84.2074 65.0175 88.5248 68.3681 88.5248 75.9071C88.5248 84.0274 82.1453 88.4734 73.5747 88.4734C65.1976 88.4734 59.7845 84.4781 57.1426 79.2581" fill="black"/>
</g>
<rect x="0.5" y="0.5" width="95" height="95" stroke="#D9D9D9" stroke-opacity="0.29"/>
<defs>
<clipPath id="clip0_402_961">
<rect width="96" height="96" fill="white"/>
</clipPath>
</defs>
</svg>
