<svg width="166" height="163" viewBox="0 0 166 163" fill="none" xmlns="http://www.w3.org/2000/svg">
<g clip-path="url(#clip0_422_634)">
<path d="M31.9915 0H42.9851V4.59703H36.5885V9.19406H42.9851V13.7911H31.9915V0ZM45.1813 0H56.1792V4.00001H49.7826V4.79746H56.1792V13.9915H45.1813V9.79534H51.5779V8.99363H45.1813V0ZM58.3796 0H69.369V4.00001H62.9724V4.79746H69.369V13.9915H58.3796V9.79534H64.7762V8.99363H58.3796V0Z" fill="#3C75C4"/>
<path fill-rule="evenodd" clip-rule="evenodd" d="M51.1345 102.388L21.5225 94.1657L12.7932 20.157H89.5525L80.8276 94.1572L51.1345 102.388ZM30.0513 53.6582L30.8658 62.7328H62.3243L61.271 74.5026L51.1473 77.2403H51.1388L41.0321 74.5111L40.3839 67.2744H31.2709L32.5417 81.5261L51.1345 86.686L69.7571 81.5261L72.0258 56.0931L72.2476 53.6582L73.8851 35.2828H28.418L29.2453 44.3617H63.9405L63.1132 53.6582H30.0513Z" fill="#3C75C4"/>
</g>
<path d="M115.112 77.5959C120.458 77.5959 125.752 78.6636 130.691 80.7379C135.63 82.8123 140.118 85.8527 143.898 89.6855C147.679 93.5184 150.677 98.0687 152.723 103.077C154.769 108.084 155.822 113.452 155.822 118.872C155.822 129.82 151.533 140.318 143.898 148.059C136.264 155.8 125.909 160.149 115.112 160.149C109.766 160.149 104.472 159.081 99.5326 157.007C94.5934 154.932 90.1055 151.892 86.3252 148.059C78.6905 140.318 74.4014 129.82 74.4014 118.872C74.4014 107.925 78.6905 97.4263 86.3252 89.6855C93.9599 81.9447 104.315 77.5959 115.112 77.5959ZM106.97 132.617C107.621 134.846 107.54 136.91 106.97 138.809C106.97 139.015 106.807 139.222 106.725 139.511C106.644 139.511 106.563 139.799 106.44 140.006C105.993 140.996 105.341 141.946 104.568 142.771C102.207 145.413 98.8276 146.404 97.4842 145.578C95.9372 144.67 96.7921 140.955 99.479 138.025C102.41 134.888 106.644 132.824 106.644 132.824L106.97 132.617ZM140.637 95.2622C138.805 87.915 126.796 85.521 115.478 89.6074C108.72 92.0427 101.392 95.8401 96.1408 100.835C89.9121 106.778 88.8943 111.938 89.3014 114.084C90.6856 121.679 101.026 126.674 105.26 130.347V130.388C104.039 131.008 94.9194 135.672 92.7211 140.46C90.5227 145.496 93.1282 149.128 94.7566 149.623C100.212 151.109 105.708 148.426 108.639 143.927C111.489 139.634 111.285 134.062 110.023 131.255C111.733 130.842 113.728 130.636 116.252 130.925C123.417 131.792 124.801 136.291 124.516 138.19C124.272 140.088 122.765 141.12 122.277 141.451C121.788 141.739 121.625 141.863 121.666 142.111C121.707 142.441 121.951 142.441 122.358 142.359C122.969 142.235 126.144 140.831 126.266 137.323C126.429 132.865 122.236 127.912 114.827 128.036C111.774 128.118 109.86 128.407 108.476 128.944L108.15 128.572C103.55 123.619 95.0823 120.111 95.4487 113.424C95.5708 110.989 96.385 104.632 111.733 96.872C124.272 90.5155 134.327 92.2491 136.078 96.1703C138.561 101.66 130.704 111.938 117.677 113.424C112.71 114.002 110.064 112.02 109.412 111.319C108.72 110.617 108.639 110.493 108.395 110.617C107.947 110.906 108.232 111.566 108.395 111.979C108.761 113.011 110.389 114.745 113.076 115.735C115.478 116.52 121.341 116.974 128.383 114.208C136.281 111.112 142.469 102.486 140.637 95.2622Z" fill="#C43C8E"/>
<defs>
<clipPath id="clip0_422_634">
<rect width="102.346" height="102.346" fill="white"/>
</clipPath>
</defs>
</svg>
