<svg width="92" height="109" viewBox="0 0 92 109" fill="none" xmlns="http://www.w3.org/2000/svg">
<g clip-path="url(#clip0_420_564)">
<path d="M78.0449 8.48423C73.0374 2.75199 63.9854 0.294434 52.4053 0.294434H18.7965C17.6507 0.294256 16.5425 0.704704 15.6711 1.45195C14.7997 2.19919 14.2224 3.23418 14.0431 4.37074L0.0490101 93.5078C-0.229146 95.2656 1.12606 96.8572 2.89993 96.8572H23.6488L28.8597 63.6624L28.698 64.7019C29.0693 62.3555 31.0674 60.6249 33.4335 60.6249H43.2933C62.6629 60.6249 77.8296 52.7234 82.26 29.8663C82.3915 29.1903 82.5054 28.5323 82.6039 27.8895C82.0447 27.5921 82.0447 27.5921 82.6039 27.8895C83.9232 19.4413 82.5949 13.6906 78.0449 8.48423Z" fill="#27346A"/>
<path d="M36.7991 24.8461C37.3662 24.5744 37.9867 24.4338 38.615 24.4347H64.9636C68.0837 24.4347 70.9939 24.6386 73.6533 25.0685C74.3975 25.1877 75.1378 25.33 75.8732 25.4951C76.9155 25.7261 77.9458 26.0088 78.9602 26.3422C80.2676 26.7807 81.4852 27.2914 82.6043 27.8895C83.9232 19.438 82.5949 13.6906 78.0449 8.48423C73.0345 2.75199 63.9854 0.294434 52.4053 0.294434H18.7937C16.4272 0.294434 14.4139 2.02472 14.0431 4.37074L0.0490121 93.5046C-0.229144 95.2652 1.12606 96.8547 2.89706 96.8547H23.6488L34.4599 28.0006C34.5663 27.3239 34.8347 26.6832 35.2422 26.1337C35.6497 25.5843 36.1839 25.1424 36.7991 24.8461Z" fill="#27346A"/>
<path d="M82.26 29.8664C77.8296 52.7204 62.6633 60.625 43.2933 60.625H33.4306C31.0645 60.625 29.066 62.3557 28.6984 64.7021L22.2156 105.976C21.9734 107.514 23.1579 108.908 24.7075 108.908H42.1983C43.2002 108.908 44.1692 108.549 44.9309 107.895C45.6926 107.241 46.1972 106.336 46.3537 105.342L46.5241 104.447L49.8206 83.4641L50.033 82.3045C50.1896 81.3106 50.6941 80.4055 51.4557 79.7518C52.2174 79.0982 53.1863 78.7389 54.1881 78.7385H56.8058C73.7493 78.7385 87.0163 71.8253 90.8932 51.8314C92.5115 43.4759 91.6742 36.4999 87.3933 31.6C86.0949 30.1158 84.4824 28.8901 82.6039 27.8896C82.5022 28.5357 82.3919 29.1904 82.26 29.8664Z" fill="#2790C3"/>
<path d="M77.967 26.0331C77.2762 25.8306 76.5789 25.6512 75.8762 25.4953C75.1404 25.3329 74.4002 25.1916 73.6563 25.0716C70.9941 24.6389 68.086 24.4346 64.9631 24.4346H38.6176C37.9889 24.4335 37.3681 24.5753 36.8017 24.8493C36.1858 25.1445 35.6508 25.586 35.2432 26.1357C34.8355 26.6854 34.5674 27.3266 34.4622 28.0038L28.8624 63.6627L28.7007 64.7021C29.069 62.3558 31.0672 60.6251 33.4337 60.6251H43.2963C62.6659 60.6251 77.8323 52.7237 82.2626 29.8665C82.3945 29.1905 82.5052 28.5354 82.6069 27.8897C81.4852 27.2954 80.2705 26.7806 78.9629 26.3453C78.6329 26.2354 78.301 26.1314 77.9674 26.0331" fill="#1F264F"/>
</g>
<defs>
<clipPath id="clip0_420_564">
<rect width="92" height="109" fill="white"/>
</clipPath>
</defs>
</svg>
