<svg width="151" height="43" viewBox="0 0 151 43" fill="none" xmlns="http://www.w3.org/2000/svg">
<path d="M27.331 31.5542C27.8029 33.3221 28.5579 34.0079 29.8917 34.0079C31.2759 34.0079 31.9994 33.1774 31.9994 31.5542V1.39194H40.6756V31.5542C40.6756 35.8011 40.122 37.6445 37.9702 39.7963C36.4162 41.3566 33.5472 42.5583 29.9295 42.5583C27.0101 42.5583 24.2103 41.5894 22.4298 39.8026C20.8632 38.2296 20.0012 36.6253 18.6611 31.5542L13.3383 11.446C12.8727 9.67806 12.1177 8.99227 10.7839 8.99227C9.39975 8.99227 8.66992 9.82277 8.66992 11.446V41.6083H0V11.446C0 7.19915 0.553667 5.35569 2.70542 3.20394C4.25946 1.6436 7.12846 0.441895 10.7462 0.441895C13.6655 0.441895 16.4653 1.41081 18.2458 3.19764C19.8125 4.77056 20.6681 6.37494 22.0145 11.446L27.331 31.5542ZM142.034 41.6083L132.024 10.2758C131.95 9.97825 131.822 9.69679 131.647 9.44527C131.504 9.27536 131.325 9.14047 131.122 9.05101C130.919 8.96156 130.698 8.91993 130.477 8.92935C130.256 8.92091 130.037 8.96301 129.835 9.05243C129.633 9.14185 129.454 9.27622 129.313 9.44527C129.137 9.69679 129.009 9.97825 128.935 10.2758L118.925 41.6083H109.959L120.901 7.3816C121.467 5.60106 122.285 4.08477 123.317 3.0781C125.091 1.34789 127.18 0.441895 130.477 0.441895C133.78 0.441895 135.869 1.3479 137.643 3.08439C138.675 4.09106 139.493 5.60106 140.059 7.3816L151 41.6083H142.034ZM97.7159 41.6083C103.397 41.6083 106.172 40.4003 108.361 38.2234C110.784 35.8136 111.941 33.1774 111.941 29.2451C111.941 25.7659 110.67 22.5508 108.733 20.6256C106.197 18.1089 103.051 17.3099 97.9172 17.3099H90.7321C87.989 17.3099 86.8942 16.9764 86.026 16.127C85.4345 15.5419 85.1514 14.6799 85.1514 13.6544C85.1514 12.5974 85.4031 11.553 86.1329 10.8357C86.781 10.2066 87.6618 9.91085 89.348 9.91085H110.117V1.39194H90.9335C85.2521 1.39194 82.4837 2.59994 80.2942 4.77685C77.872 7.18656 76.708 9.82277 76.708 13.7551C76.708 17.2344 77.9852 20.4494 79.9167 22.3746C82.4586 24.8913 85.6044 25.6904 90.7384 25.6904H97.9172C100.667 25.6904 101.755 26.0238 102.623 26.8732C103.221 27.4583 103.504 28.3203 103.504 29.3458C103.504 30.4091 103.246 31.4535 102.516 32.1645C101.875 32.7936 100.994 33.0894 99.3077 33.0894H77.8845L69.6676 7.3816C69.1014 5.60106 68.2835 4.08477 67.2516 3.0781C65.4774 1.34789 63.3822 0.441895 60.0854 0.441895C56.7886 0.441895 54.6935 1.3479 52.9255 3.08439C51.8874 4.09106 51.0758 5.60106 50.5032 7.3816L39.5683 41.6083H48.5276L58.544 10.2758C58.6181 9.97825 58.7461 9.69679 58.9215 9.44527C59.0633 9.27622 59.2419 9.14185 59.4436 9.05243C59.6454 8.96301 59.8649 8.92091 60.0854 8.92935C60.5929 8.92935 60.983 9.10132 61.2557 9.44527C61.431 9.69679 61.559 9.97825 61.6332 10.2758L71.6432 41.6083H97.7159Z" fill="#D0002A"/>
</svg>
