<svg width="118" height="63" viewBox="0 0 118 63" fill="none" xmlns="http://www.w3.org/2000/svg">
<g clip-path="url(#clip0_405_468)">
<path d="M59 62.8133C91.5848 62.8133 118 48.7521 118 31.4067C118 14.0612 91.5848 0 59 0C26.4152 0 0 14.0612 0 31.4067C0 48.7521 26.4152 62.8133 59 62.8133Z" fill="url(#paint0_radial_405_468)"/>
<path d="M59 60.4799C90.312 60.4799 115.695 47.4633 115.695 31.4066C115.695 15.3498 90.312 2.33325 59 2.33325C27.688 2.33325 2.30469 15.3498 2.30469 31.4066C2.30469 47.4633 27.688 60.4799 59 60.4799Z" fill="#6181B6"/>
<path d="M70.4774 40.8334L73.2891 26.18C73.9344 22.8667 73.3813 20.3934 71.7219 18.8534C70.1086 17.36 67.343 16.6134 63.2867 16.6134H58.4008L59.7836 9.33338C59.8297 9.05338 59.7836 8.77338 59.5992 8.54005C59.4149 8.30671 59.1844 8.21338 58.9078 8.21338H52.1781C51.7172 8.21338 51.3485 8.54005 51.2563 8.96005L48.2602 24.5C47.9836 22.7267 47.3383 21.2334 46.2321 20.02C44.25 17.7334 41.1617 16.5667 36.9672 16.5667H24.0149C23.5539 16.5667 23.1852 16.8934 23.093 17.3134L17.0547 48.86C17.0086 49.14 17.0547 49.42 17.2391 49.6534C17.4235 49.8867 17.6539 49.98 17.9305 49.98H24.7063C25.1672 49.98 25.536 49.6534 25.6281 49.2334L27.1031 41.6267H32.1274C34.7547 41.6267 37.0133 41.3467 38.7188 40.7867C40.5164 40.18 42.1297 39.2 43.5586 37.8467C44.711 36.7734 45.6789 35.56 46.4164 34.2534L45.218 40.5534C45.1719 40.8334 45.218 41.1134 45.4024 41.3467C45.5867 41.58 45.8172 41.6734 46.0938 41.6734H52.8235C53.2844 41.6734 53.6531 41.3467 53.7453 40.9267L57.0641 23.66H61.6735C63.6555 23.66 64.2086 24.0334 64.393 24.22C64.5313 24.36 64.8078 24.92 64.4852 26.6467L61.8117 40.6C61.7656 40.88 61.8117 41.16 61.9961 41.3934C62.1805 41.6267 62.411 41.72 62.6875 41.72H69.6016C70.0164 41.58 70.3852 41.2534 70.4774 40.8334ZM39.318 28.7C38.9032 30.8934 38.1196 32.48 36.9672 33.3667C35.8149 34.2534 33.925 34.72 31.436 34.72H28.4399L30.6063 23.4267H34.4781C37.336 23.4267 38.4883 24.0334 38.9492 24.5467C39.5485 25.2934 39.6867 26.74 39.318 28.7ZM99.2399 20.02C97.2578 17.7334 94.1696 16.5667 89.975 16.5667H76.9305C76.4696 16.5667 76.1008 16.8934 76.0086 17.3134L69.9703 48.8134C69.9242 49.0934 69.9703 49.3734 70.1547 49.6067C70.3391 49.84 70.5696 49.9334 70.8461 49.9334H77.6219C78.0828 49.9334 78.4516 49.6067 78.5438 49.1867L80.0188 41.58H85.043C87.6703 41.58 89.9289 41.3 91.6344 40.74C93.4321 40.1334 95.0453 39.1534 96.4742 37.8C97.6727 36.68 98.6867 35.42 99.4242 34.0667C100.162 32.7134 100.715 31.22 101.038 29.5867C101.821 25.5267 101.222 22.3534 99.2399 20.02ZM92.1875 28.7C91.7727 30.8934 90.9891 32.48 89.8367 33.3667C88.6844 34.2534 86.7946 34.72 84.3055 34.72H81.3094L83.4758 23.4267H87.3477C90.2055 23.4267 91.3578 24.0334 91.8188 24.5467C92.4641 25.2934 92.6024 26.74 92.1875 28.7Z" fill="white"/>
<path d="M34.4781 22.4934C37.0594 22.4934 38.7648 22.9601 39.6406 23.9401C40.5164 24.9201 40.7008 26.5534 40.2398 28.8867C39.7789 31.3134 38.857 33.0867 37.5203 34.1134C36.1836 35.1401 34.1555 35.6534 31.4359 35.6534H27.3336L29.8688 22.4934H34.4781ZM17.9766 49.0001H24.7523L26.3656 40.6467H32.1734C34.7547 40.6467 36.8289 40.3667 38.4883 39.8067C40.1477 39.2467 41.6227 38.3601 43.0055 37.0534C44.1578 35.9801 45.0797 34.8134 45.7711 33.5534C46.4625 32.2934 46.9695 30.8934 47.2461 29.3534C47.9836 25.6201 47.4305 22.7267 45.6328 20.6267C43.8352 18.5267 40.9773 17.5001 37.0594 17.5001H24.0148L17.9766 49.0001ZM52.2242 9.14673H58.9539L57.3406 17.5001H63.3328C67.1125 17.5001 69.6938 18.1534 71.1227 19.5067C72.5516 20.8601 72.9664 23.0067 72.4133 25.9934L69.6016 40.6467H62.7797L65.4531 26.6934C65.7758 25.1067 65.6375 24.0334 65.1305 23.4734C64.6234 22.9134 63.4711 22.5867 61.7656 22.5867H56.3727L52.9156 40.6467H46.1859L52.2242 9.14673ZM87.3477 22.4934C89.9289 22.4934 91.6344 22.9601 92.5102 23.9401C93.3859 24.9201 93.5703 26.5534 93.1094 28.8867C92.6484 31.3134 91.7266 33.0867 90.3898 34.1134C89.0531 35.1401 87.025 35.6534 84.3055 35.6534H80.2031L82.7383 22.4934H87.3477ZM70.8461 49.0001H77.6219L79.2352 40.6467H85.043C87.6242 40.6467 89.6984 40.3667 91.3578 39.8067C93.0172 39.2467 94.4922 38.3601 95.875 37.0534C97.0273 35.9801 97.9492 34.8134 98.6406 33.5534C99.332 32.2934 99.8391 30.8934 100.116 29.3534C100.853 25.6201 100.3 22.7267 98.5023 20.6267C96.7047 18.5267 93.8469 17.5001 89.9289 17.5001H76.8844L70.8461 49.0001Z" fill="#000004"/>
</g>
<defs>
<radialGradient id="paint0_radial_405_468" cx="0" cy="0" r="1" gradientUnits="userSpaceOnUse" gradientTransform="translate(35.4238 11.0448) scale(77.4815 78.4445)">
<stop stop-color="white"/>
<stop offset="0.5" stop-color="#4C6B97"/>
<stop offset="1" stop-color="#231F20"/>
</radialGradient>
<clipPath id="clip0_405_468">
<rect width="118" height="63" fill="white"/>
</clipPath>
</defs>
</svg>
