<svg width="109" height="75" viewBox="0 0 109 75" fill="none" xmlns="http://www.w3.org/2000/svg">
<g clip-path="url(#clip0_405_473)">
<path d="M32.4254 49.4908L35.7379 60.3405C36.4822 62.8039 36.7926 64.5235 36.6683 65.5036C38.48 60.6056 39.7459 55.268 40.466 49.4908H44.4492C42.7363 58.8963 40.4777 65.7308 37.6736 69.9944C35.4889 73.28 33.0956 74.9227 30.4893 74.9227C29.7945 74.9227 28.9378 74.7108 27.9212 74.29V72.0228C28.4179 72.0963 29.0006 72.1357 29.6708 72.1357C30.8864 72.1354 31.8668 71.7957 32.6121 71.1166C33.5047 70.2895 33.9516 69.3598 33.9516 68.3294C33.9516 67.6258 33.6031 66.1819 32.9093 63.9976L28.2938 49.4908H32.4254ZM7.07287 42.8223L13.1402 61.5091H13.1777L19.2824 42.8223H24.27C25.3621 52.0896 26.0071 60.5689 26.2051 68.2548H22.0001C21.8519 61.0703 21.4426 54.3138 20.7722 47.9854H20.7355L14.3322 68.2548H11.1299L4.76534 47.9854H4.72788C4.25597 54.0631 3.9582 60.8195 3.83459 68.2548H0C0.247805 59.2118 0.867955 50.7351 1.86045 42.8223H7.07287Z" fill="#00758F"/>
<path d="M75.0436 42.4448C81.5702 42.4448 84.8336 46.6538 84.8336 55.0678C84.8336 59.64 83.8522 63.0937 81.8912 65.4268C81.5378 65.8532 81.1472 66.2215 80.7359 66.5628L85.3545 68.868L85.3501 68.8678L83.7102 71.7264L77.6954 68.1838C76.6982 68.4818 75.6017 68.6308 74.406 68.6308C71.2014 68.6308 68.8076 67.688 67.225 65.8048C65.4878 63.7216 64.6196 60.442 64.6196 55.9717C64.6196 51.4252 65.5994 47.9847 67.5609 45.6485C69.3475 43.5116 71.8422 42.4448 75.0436 42.4448ZM55.0574 42.4815C57.3901 42.4815 59.5111 43.1116 61.4216 44.3673L60.4512 46.55C58.8165 45.8486 57.2047 45.4964 55.6152 45.4964C54.3255 45.4964 53.3317 45.8097 52.639 46.4402C51.9424 47.0651 51.5115 47.8693 51.5115 48.8497C51.5115 50.3561 52.5747 51.6625 54.5378 52.7662C55.1809 53.1211 55.8218 53.48 56.4604 53.8431L56.6069 53.9262L56.6803 53.9679L56.827 54.0511L56.9002 54.0928L57.0467 54.1762C58.5327 55.0218 59.9309 55.829 59.9309 55.829C61.8938 57.2355 62.8722 58.7351 62.8722 61.2049C62.8722 63.3618 62.0892 65.1324 60.5283 66.5179C58.9663 67.8971 56.8679 68.5886 54.2399 68.5886C51.7821 68.5886 49.4001 67.7926 47.0928 66.214L48.1721 64.0293C50.1578 65.034 51.9546 65.5358 53.5681 65.5358C55.0813 65.5358 56.2658 65.1947 57.1227 64.5212C57.9779 63.8428 58.4903 62.8966 58.4903 61.6968C58.4903 60.1867 57.4497 58.8958 55.5407 57.8129C54.9432 57.4797 54.3474 57.1432 53.7535 56.8035L53.6072 56.7199C53.3386 56.5667 53.068 56.4116 52.8029 56.2596L52.6592 56.1771C51.3702 55.437 50.2557 54.7904 50.2557 54.7904C48.3473 53.3813 47.3904 51.8694 47.3904 49.3783C47.3904 47.3181 48.104 45.6528 49.5291 44.386C50.9577 43.1164 52.8005 42.4815 55.0574 42.4815ZM92.5038 42.8219V65.126H100.431V68.2545H88.4832V42.8222L92.5038 42.8219ZM104.837 65.1356V65.6643H103.965V68.2517H103.299V65.6643H102.393V65.1356H104.837ZM106.446 65.1356L107.283 67.2597L108.052 65.1356H108.996V68.2517H108.368V65.8803L107.493 68.2517H107.04L106.164 65.8803H106.13V68.2517H105.536V65.1356H106.446ZM74.6332 45.5724C70.7871 45.5724 68.863 48.7766 68.863 55.1806C68.863 58.8489 69.3728 61.509 70.3907 63.1669C71.3334 64.7013 72.8098 65.467 74.8201 65.467C78.6662 65.467 80.59 62.2379 80.59 55.7828C80.59 52.1658 80.0802 49.5285 79.0636 47.8697C78.1199 46.3388 76.6441 45.5724 74.6334 45.5724" fill="#F29111"/>
<path d="M64.5525 1.57587C65.8283 -1.58874 70.2895 0.807823 72.0207 1.91327C72.445 2.18984 72.9316 2.77415 73.4181 2.99013C74.177 3.02022 74.9354 3.08017 75.6956 3.11219C77.1215 3.45044 78.4572 3.72681 79.5809 4.37279C84.8026 7.47702 88.2019 10.6403 91.3303 15.8654C91.9988 16.9721 92.3328 18.1698 92.8789 19.3674C93.6367 21.1526 94.4883 23.0265 95.368 24.7146C95.7618 25.5148 96.0665 26.4047 96.6134 27.0806C96.8269 27.3896 97.4334 27.4807 97.796 27.6653C98.7983 28.1891 100.013 28.5866 100.955 29.2012C102.716 30.3093 104.418 31.6296 105.965 32.9813C106.542 33.5031 106.935 34.2417 107.484 34.7936V35.0721C106.996 35.2232 106.51 35.3779 106.024 35.5019C104.961 35.7774 104.02 35.7151 102.989 35.9908C102.352 36.1773 101.562 36.4234 100.894 36.4859L100.955 36.5487C101.348 37.6823 103.475 38.6042 104.447 39.2822C105.628 40.1426 106.723 41.1862 107.604 42.3847C107.908 42.6905 108.212 42.9688 108.515 43.2737C108.726 43.5828 108.786 43.9825 109 44.258V44.3512C108.763 44.2668 108.593 44.1056 108.431 43.9371L108.334 43.8355C108.238 43.7345 108.141 43.6352 108.03 43.5533C107.36 43.0913 106.694 42.5386 106.024 42.109C104.872 41.371 103.536 40.9427 102.352 40.202C101.684 39.7719 101.046 39.2822 100.408 38.7901C99.8304 38.3588 99.1938 37.5305 98.8306 36.9159C98.6167 36.5764 98.5873 36.1773 98.3429 35.9317C98.3865 35.5214 98.7589 35.3996 99.1346 35.2994L99.2211 35.2764C99.3507 35.2425 99.4776 35.2085 99.5883 35.1636C101.167 34.4871 103.048 34.2417 105.478 34.3032C105.387 33.6873 103.868 32.9199 103.384 32.5511C102.411 31.8432 101.381 31.1046 100.349 30.4603C99.8016 30.1229 98.8592 29.8767 98.2533 29.6009C97.4334 29.2627 95.6113 28.9247 95.157 28.2804C94.3853 27.2648 93.8309 26.0534 93.2927 24.8297L93.1462 24.4958L92.9993 24.162C92.3632 22.6885 91.573 21.1522 90.9354 19.6434C90.602 18.9073 90.4489 18.2613 90.0838 17.5554C87.8683 13.2234 84.5891 9.59658 80.6134 7.04593C79.3069 6.21599 77.8501 5.44794 76.2419 4.92595C75.3305 4.64808 74.2367 4.80173 73.2657 4.58855H72.6266C72.0811 4.4334 71.6258 3.84973 71.2002 3.54199C70.2603 2.89772 69.3189 2.46513 68.1948 2.00546C67.801 1.82107 66.6763 1.39171 66.2837 1.72974C66.0406 1.79142 65.9173 1.88404 65.8575 2.13032C65.6157 2.49779 65.8283 3.05138 65.9788 3.39027C66.4349 4.37236 67.0718 4.95603 67.65 5.78597C68.1644 6.52201 68.8033 7.35195 69.1679 8.15224C69.9548 9.87251 70.3212 11.7785 71.0503 13.4985C71.3207 14.1454 71.7484 14.8814 72.142 15.4648C72.4756 15.928 73.0822 16.2628 73.2657 16.849C73.6314 17.4636 72.7181 19.4916 72.5067 20.1357C71.7158 22.6558 71.8691 26.1589 72.7799 28.3434L72.8284 28.4585L72.8769 28.5752C73.2095 29.3753 73.5654 30.2368 74.4496 30.4605C74.5104 30.3995 74.4495 30.4315 74.5703 30.3995C74.7842 28.7087 74.8445 27.0804 75.4218 25.7575C75.7554 24.9303 76.4216 24.3456 76.8782 23.6704C77.1826 23.8543 77.1826 24.409 77.364 24.776C77.7591 25.728 78.1834 26.7718 78.6705 27.7266C79.6703 29.6929 80.7952 31.5993 82.0698 33.3194C82.4966 33.9338 83.1023 34.61 83.6486 35.1634C83.8919 35.3777 84.1644 35.5014 84.3473 35.7772H84.4069V35.87C83.4961 35.5311 82.9188 34.58 82.1924 34.0247C80.8248 32.9809 79.187 31.4134 78.2443 29.9093C77.8501 29.0459 77.4238 28.2183 76.9989 27.3591V27.297C76.8173 27.5424 76.8782 27.7861 76.7873 28.1575C76.393 29.6929 76.6966 31.4446 75.3305 31.9969C73.7819 32.6437 72.6268 30.9531 72.142 30.1848C70.593 27.6348 70.1687 23.333 71.2611 19.8604C71.5038 19.0917 71.5368 18.1698 71.9604 17.556C71.8689 17.0012 71.4452 16.8494 71.2002 16.5095C70.7753 15.9284 70.4114 15.2514 70.0787 14.6061C69.4396 13.3455 68.9849 11.8393 68.4997 10.4873C68.2864 9.93526 68.2253 9.38103 68.0126 8.8584C67.6498 8.06069 66.9811 7.2604 66.4653 6.55467C65.7668 5.54034 63.7324 3.57444 64.5525 1.57587ZM74.5098 7.59629C74.5909 7.67838 74.6888 7.75016 74.7902 7.82086L74.9124 7.90553C75.0752 8.01943 75.233 8.13934 75.3296 8.30266C75.4829 8.51885 75.5114 8.73225 75.695 8.94887C75.695 9.68748 75.4829 10.1785 75.0548 10.4845C75.0548 10.4845 75.0256 10.5168 74.9956 10.5469C74.7529 10.0545 74.5402 9.56477 74.2958 9.07287C73.9948 8.6435 73.5693 8.30288 73.324 7.81226H73.265V7.75059C73.6314 7.65926 73.9948 7.59629 74.5098 7.59629Z" fill="#00758F"/>
</g>
<defs>
<clipPath id="clip0_405_473">
<rect width="109" height="75" fill="white"/>
</clipPath>
</defs>
</svg>
