<svg width="89" height="89" viewBox="0 0 89 89" fill="none" xmlns="http://www.w3.org/2000/svg">
<g clip-path="url(#clip0_420_557)">
<path d="M70.2708 42.57C70.2708 37.853 68.5743 34.5878 67.1225 32.0457L66.6775 31.3226C64.9142 28.4857 63.3733 25.9937 63.3733 23.0901C63.3733 19.5857 66.0322 16.315 69.7813 16.315C69.8926 16.315 70.0001 16.3205 70.104 16.3317L70.2764 16.3484C63.2458 9.89201 54.0451 6.31422 44.4998 6.32473C38.1738 6.32397 31.9469 7.89593 26.3793 10.8992C20.8117 13.9024 16.0781 18.2427 12.6044 23.5295C13.4944 23.5574 14.3455 23.5796 15.063 23.5796C19.0513 23.5796 25.2313 23.0957 25.2313 23.0957C27.2894 22.9733 27.5341 25.9937 25.476 26.2385C25.476 26.2385 23.4123 26.4832 21.1095 26.6L35.0157 67.9517L43.3595 42.887L37.4076 26.5945C35.355 26.4721 33.4081 26.2329 33.4081 26.2329C31.35 26.1105 31.5948 22.9622 33.6473 23.0845C33.6473 23.0845 39.9552 23.5685 43.7043 23.5685C47.6982 23.5685 53.8837 23.0845 53.8837 23.0845C55.9418 22.9622 56.181 25.9882 54.1229 26.2329C54.1229 26.2329 52.0536 26.4721 49.7563 26.5945L63.5513 67.629L67.3561 54.9076L67.6565 53.9453C69.1583 49.1615 70.2653 45.6294 70.2653 42.5644L70.2708 42.57ZM6.32433 44.5002C6.32133 51.6694 8.33804 58.6944 12.1434 64.7703C15.9487 70.8463 21.3887 75.7273 27.8401 78.8542L9.6229 28.9585C7.4355 33.8471 6.31118 39.1445 6.32433 44.5002Z" fill="#21759B"/>
<path d="M33.7144 81.1179L45.1731 47.8374L56.9044 79.9887C56.9786 80.1741 57.0694 80.3484 57.177 80.5116C49.6147 83.1773 41.4042 83.3895 33.7144 81.1179ZM77.9919 26.1826C78.1624 27.399 78.2496 28.708 78.2533 30.1097C78.2533 33.9812 77.5302 38.3367 75.3497 43.7824L63.6907 77.4911C72.2942 72.4924 78.605 64.3308 81.2775 54.7461C83.9501 45.1615 82.7731 34.912 77.9974 26.1826H77.9919Z" fill="#21759B"/>
<path fill-rule="evenodd" clip-rule="evenodd" d="M0 44.5C0 19.9638 19.9638 0 44.5 0C69.0362 0 89 19.9638 89 44.5C89 69.0362 69.0306 89 44.5 89C19.9694 89 0 69.0362 0 44.5ZM2.04144 44.5C2.04144 67.9126 21.0874 86.9586 44.5 86.9586C67.9126 86.9586 86.953 67.9126 86.953 44.5C86.953 21.0819 67.907 2.04144 44.5 2.04144C21.0819 2.04144 2.04144 21.0819 2.04144 44.5Z" fill="#21759B"/>
</g>
<defs>
<clipPath id="clip0_420_557">
<rect width="89" height="89" fill="white"/>
</clipPath>
</defs>
</svg>
