<svg width="210" height="66" viewBox="0 0 210 66" fill="none" xmlns="http://www.w3.org/2000/svg">
<g clip-path="url(#clip0_417_570)">
<path d="M60.5012 46.7311C60.2059 45.9022 59.8605 45.1004 59.532 44.3576C59.0258 43.2216 58.5101 42.0898 57.9849 40.9625L57.9439 40.8743C53.3037 30.8397 48.4449 20.9076 43.371 11.085L43.154 10.6652C42.6265 9.63487 42.0897 8.6093 41.5438 7.5886C40.8886 6.29111 40.094 5.06884 39.1739 3.94343C38.1375 2.70806 36.8427 1.71482 35.3808 1.03369C33.918 0.352294 32.3236 -0.000700647 30.7098 -0.000488185C29.0959 -0.000275724 27.5017 0.353138 26.039 1.03492C24.5773 1.71639 23.2828 2.7099 22.2467 3.94548C21.3279 5.07112 20.534 6.29305 19.8789 7.58983C19.328 8.61996 18.7863 9.65495 18.2539 10.6947L18.0529 11.0841C12.9791 20.9073 8.12015 30.8398 3.47963 40.8747L3.41318 41.0182C2.89699 42.127 2.38989 43.2401 1.89191 44.3572C1.56379 45.0996 1.21885 45.901 0.923125 46.7319C0.0758593 48.9951 -0.194219 51.4335 0.137266 53.8271C0.48926 56.2468 1.46829 58.5324 2.97719 60.4571C4.48751 62.383 6.47456 63.8816 8.74193 64.8049C10.4557 65.4973 12.2874 65.8515 14.1359 65.8477C14.7172 65.8477 15.2966 65.814 15.8741 65.7465C18.212 65.4492 20.467 64.6889 22.5072 63.5099C25.1826 62.0074 27.8253 59.8057 30.712 56.6594C33.5986 59.8057 36.2409 62.0074 38.9167 63.5095C40.9569 64.6886 43.2119 65.4491 45.5498 65.7465C46.1268 65.8135 46.7071 65.8473 47.288 65.8477C49.1366 65.8518 50.9683 65.4977 52.6816 64.8049C54.9491 63.8817 56.9363 62.383 58.4467 60.4571C59.9556 58.5324 60.9346 56.2468 61.2866 53.8271C61.6177 51.4333 61.3478 48.9947 60.5012 46.7311ZM30.712 50.1611C27.1383 45.6337 24.8455 41.4294 24.0408 37.9051C23.7106 36.5846 23.6327 35.2138 23.8111 33.8644C23.9517 32.8749 24.3154 31.9303 24.8746 31.1018C25.5631 30.2096 26.4474 29.4873 27.4594 28.9906C28.4719 28.4941 29.5847 28.236 30.7125 28.2362C31.8402 28.2363 32.953 28.4947 33.9653 28.9915C34.9771 29.4882 35.8613 30.2104 36.5497 31.1026C37.109 31.9313 37.4726 32.876 37.6132 33.8656C37.7905 35.2155 37.7123 36.5866 37.3827 37.9076C36.5772 41.4318 34.2848 45.6349 30.712 50.1611ZM57.1129 53.2311C56.867 54.9228 56.1824 56.5208 55.1273 57.8663C54.0714 59.2131 52.6819 60.2611 51.0963 60.9064C49.4922 61.5486 47.752 61.7762 46.0366 61.568C44.2538 61.3384 42.5356 60.7518 40.9847 59.8434C38.603 58.5062 36.1921 56.4532 33.4789 53.4414C37.7978 48.1192 40.495 43.2134 41.4933 38.8435C41.9423 37.0063 42.0397 35.1007 41.7804 33.2273C41.5445 31.6131 40.9451 30.0733 40.0274 28.7242C38.9512 27.2679 37.5479 26.0846 35.9304 25.2696C34.312 24.4542 32.5248 24.0294 30.7124 24.0294C28.8999 24.0294 27.1128 24.4542 25.4944 25.2696C23.8768 26.0843 22.4733 27.2673 21.3969 28.7234C20.4794 30.072 19.8801 31.6112 19.6439 33.2249C19.3843 35.0977 19.4811 37.0026 19.9294 38.8394C20.9273 43.2106 23.6245 48.1179 27.9446 53.4418C25.2319 56.4532 22.821 58.5062 20.4392 59.8438C18.8883 60.7521 17.1701 61.3385 15.3873 61.568C13.6718 61.7763 11.9314 61.5487 10.3272 60.9064C8.74208 60.2606 7.35284 59.2129 6.29658 57.8667C5.24155 56.521 4.55717 54.9229 4.31143 53.2311C4.07541 51.5118 4.27656 49.7608 4.89631 48.1397C5.13174 47.4772 5.40777 46.8279 5.74943 46.0555C6.23811 44.9596 6.73565 43.8676 7.24199 42.7797L7.30844 42.6354C11.9234 32.6564 16.7557 22.7792 21.8017 13.0108L22.0035 12.6194C22.5203 11.6179 23.0543 10.582 23.5933 9.58131C24.1091 8.54971 24.7332 7.57583 25.455 6.67608C26.0957 5.90383 26.899 5.28225 27.8074 4.8556C28.7159 4.42894 29.7074 4.2077 30.7111 4.20762C31.7149 4.20754 32.7064 4.42863 33.6149 4.85514C34.5235 5.28166 35.3268 5.90311 35.9677 6.67526C36.6901 7.57424 37.3143 8.54776 37.8298 9.57926C38.3634 10.5713 38.8929 11.5978 39.4052 12.5903L39.6226 13.0113C44.6687 22.7796 49.5009 32.657 54.1155 42.6362L54.1565 42.7248C54.661 43.8165 55.1831 44.9446 55.6745 46.0559C56.0165 46.8291 56.293 47.4792 56.528 48.1392C57.1478 49.7603 57.3489 51.5114 57.1129 53.2307M85.821 49.631C84.1762 49.631 82.6628 49.3016 81.2805 48.6427C79.8983 47.9835 78.7142 47.0603 77.6613 45.8743C76.6084 44.6884 75.8189 43.304 75.2262 41.7877C74.6339 40.2057 74.3706 38.4918 74.3706 36.6466C74.3706 34.8015 74.7 33.0211 75.2923 31.4392C75.8845 29.8572 76.7401 28.4733 77.793 27.2209C78.8458 26.0346 80.096 25.0458 81.5438 24.3866C82.9917 23.7274 84.5052 23.3979 86.2163 23.3979C87.8611 23.3979 89.3089 23.7274 90.6255 24.4526C91.9417 25.1118 92.9946 26.1006 93.8498 27.3525L94.0475 24.123H100.101V48.9722H94.0475L93.8498 45.3472C92.9946 46.6651 91.8757 47.7199 90.4278 48.5107C89.1116 49.2362 87.5321 49.6314 85.8214 49.6314M87.4013 43.6996C88.5858 43.6996 89.6387 43.37 90.6259 42.7768C91.5471 42.1177 92.2707 41.2609 92.8633 40.2065C93.3896 39.1518 93.6529 37.8994 93.6529 36.515C93.6529 35.1307 93.3896 33.8783 92.8633 32.824C92.3367 31.7692 91.5467 30.9124 90.6259 30.2537C89.7043 29.5941 88.5858 29.3305 87.4013 29.3305C86.2168 29.3305 85.1639 29.6601 84.1766 30.2532C83.2554 30.9124 82.5315 31.7692 81.9392 32.8236C81.4126 33.8783 81.1493 35.1307 81.1493 36.515C81.1493 37.8994 81.4126 39.1518 81.9392 40.2061C82.4655 41.2609 83.2554 42.1177 84.1766 42.7764C85.1639 43.37 86.2168 43.6996 87.4013 43.6996ZM110.434 17.4001C110.434 18.1252 110.302 18.7844 109.973 19.3116C109.632 19.8611 109.156 20.3148 108.591 20.63C107.999 20.9595 107.341 21.0911 106.683 21.0911C106.025 21.0911 105.367 20.9595 104.774 20.63C104.209 20.3148 103.734 19.8611 103.392 19.3116C103.064 18.7184 102.932 18.1252 102.932 17.4001C102.932 16.6753 103.063 16.0161 103.392 15.4885C103.721 14.8953 104.182 14.5002 104.775 14.1706C105.367 13.841 106.025 13.709 106.683 13.709C107.341 13.709 107.999 13.841 108.591 14.1706C109.156 14.4856 109.632 14.9391 109.973 15.4885C110.236 16.0161 110.434 16.6093 110.434 17.4001ZM103.392 48.9067V24.057H109.973V48.9062L103.392 48.9067ZM127.544 30.5824V30.6488C127.215 30.5168 126.82 30.4508 126.491 30.3852C126.096 30.3192 125.767 30.3192 125.372 30.3192C123.53 30.3192 122.148 30.8464 121.226 31.9672C120.239 33.0876 119.779 34.6695 119.779 36.7126V48.9067H113.198V24.057H119.252L119.45 27.8141C120.108 26.4958 120.898 25.507 122.016 24.7822C123.069 24.0566 124.319 23.7274 125.767 23.7274C126.228 23.7274 126.689 23.793 127.084 23.859C127.28 23.925 127.412 23.925 127.544 23.991V30.5824ZM130.176 48.9067V13.8406H136.757V27.2209C137.678 26.035 138.731 25.1118 140.047 24.387C141.364 23.7279 142.812 23.3323 144.456 23.3323C146.101 23.3323 147.615 23.6619 148.997 24.321C150.379 24.9802 151.564 25.903 152.617 27.0893C153.67 28.2757 154.459 29.6601 155.052 31.1764C155.644 32.758 155.907 34.4715 155.907 36.3171C155.907 38.163 155.578 39.9425 154.986 41.5245C154.393 43.1064 153.538 44.4904 152.485 45.7427C151.432 46.9295 150.182 47.9179 148.734 48.5771C147.286 49.2362 145.773 49.5658 144.062 49.5658C142.416 49.5658 140.969 49.2362 139.653 48.5111C138.336 47.8519 137.283 46.8631 136.428 45.6112L136.23 48.8406L130.176 48.9067ZM142.877 43.6996C144.062 43.6996 145.115 43.37 146.102 42.7768C147.023 42.1177 147.747 41.2609 148.339 40.2065C148.866 39.1518 149.129 37.8994 149.129 36.515C149.129 35.1307 148.866 33.8783 148.339 32.824C147.747 31.7692 147.023 30.9124 146.102 30.2537C145.18 29.5941 144.062 29.3305 142.877 29.3305C141.692 29.3305 140.64 29.6601 139.653 30.2532C138.731 30.9124 138.007 31.7692 137.415 32.8236C136.889 33.8783 136.625 35.1307 136.625 36.515C136.625 37.8994 136.889 39.1518 137.415 40.2061C137.942 41.2609 138.732 42.1177 139.653 42.7764C140.64 43.37 141.692 43.6996 142.877 43.6996ZM158.408 48.9067V24.057H164.462L164.66 27.2869C165.383 26.1002 166.37 25.1774 167.621 24.4526C168.871 23.7274 170.319 23.3979 171.964 23.3979C173.807 23.3979 175.386 23.859 176.702 24.7162C178.084 25.573 179.137 26.8253 179.861 28.4073C180.585 29.9892 180.98 31.9004 180.98 34.0759V48.9722H174.399V34.9327C174.399 33.2191 174.004 31.8348 173.215 30.8456C172.425 29.8577 171.372 29.3301 169.99 29.3301C169.003 29.3301 168.147 29.5277 167.358 29.9892C166.634 30.4504 166.041 31.0436 165.581 31.9008C165.12 32.6916 164.923 33.6799 164.923 34.6691V48.9062L158.408 48.9067ZM184.27 48.9067V13.8406H190.851V27.2209C191.772 26.035 192.825 25.1118 194.141 24.387C195.458 23.7279 196.906 23.3323 198.55 23.3323C200.196 23.3323 201.71 23.6619 203.091 24.321C204.473 24.9802 205.658 25.903 206.71 27.0893C207.765 28.2757 208.553 29.6601 209.146 31.1764C209.739 32.758 210 34.4715 210 36.3171C210 38.163 209.673 39.9425 209.08 41.5245C208.487 43.1064 207.632 44.4904 206.578 45.7427C205.526 46.9295 204.276 47.9179 202.828 48.5771C201.38 49.2362 199.867 49.5658 198.156 49.5658C196.511 49.5658 195.063 49.2362 193.747 48.5111C192.43 47.8519 191.378 46.8631 190.522 45.6112L190.325 48.8406L184.27 48.9067ZM197.037 43.6996C198.221 43.6996 199.274 43.37 200.262 42.7768C201.183 42.1177 201.906 41.2609 202.499 40.2065C203.026 39.1518 203.289 37.8994 203.289 36.515C203.289 35.1307 203.026 33.8783 202.499 32.824C201.973 31.7692 201.183 30.9124 200.262 30.2537C199.34 29.5941 198.221 29.3305 197.037 29.3305C195.852 29.3305 194.799 29.6601 193.812 30.2532C192.891 30.9124 192.168 31.7692 191.575 32.8236C190.983 33.8783 190.785 35.1307 190.785 36.515C190.785 37.8994 191.049 39.1518 191.575 40.2061C192.101 41.2609 192.891 42.1177 193.812 42.7764C194.799 43.37 195.787 43.6996 197.037 43.6996Z" fill="#FF385C"/>
</g>
<defs>
<clipPath id="clip0_417_570">
<rect width="210" height="66" fill="white"/>
</clipPath>
</defs>
</svg>
