<svg width="125" height="125" viewBox="0 0 125 125" fill="none" xmlns="http://www.w3.org/2000/svg">
<path d="M22.8125 82.7242C23 82.9429 23.4635 83.4273 23.4635 83.4273C23.4635 83.4273 22.974 83.7346 22.6719 83.8752C20.584 84.8493 18.3092 85.3576 16.0052 85.3648C8.29688 85.3648 0 79.6356 0 67.0731V21.344H18.2917V70.12C18.2917 75.0679 19.8906 79.396 22.8125 82.7242ZM125 57.9273V39.6356H118.474C115.745 25.2606 100.635 15.8127 85.4479 21.4898C76.9896 24.6513 70.1198 34.7606 70.1198 43.7919V85.3492H70.9167C75.6177 85.1492 80.0593 83.1393 83.3125 79.7398C86.6042 76.3127 88.4167 71.8127 88.4167 67.0731H96.0365V48.7815H88.4167V43.7502C88.4167 41.7971 89.4479 39.969 91.1563 39.0158C95.8438 36.4117 100.609 39.7606 100.609 44.2033V60.9742C100.609 67.6044 103.109 73.7658 107.661 78.3127C112.077 82.6869 118 85.2047 124.214 85.3492H125V67.0679C123.384 67.0679 121.834 66.4259 120.691 65.2831C119.548 64.1403 118.906 62.5903 118.906 60.9742V57.9221L125 57.9273ZM47.2552 64.021C47.2552 64.8291 46.9342 65.6041 46.3628 66.1755C45.7914 66.7469 45.0164 67.0679 44.2083 67.0679C43.4003 67.0679 42.6253 66.7469 42.0539 66.1755C41.4825 65.6041 41.1615 64.8291 41.1615 64.021V39.6356H22.8646V70.12C22.8667 73.0335 23.7034 75.8855 25.2756 78.3384C26.8478 80.7913 29.0898 82.7425 31.7363 83.9611C34.3828 85.1797 37.3229 85.6146 40.2089 85.2145C43.0948 84.8144 45.8057 83.5959 48.0208 81.7033C47.7344 83.9585 46.4896 85.8283 44.4271 87.12C42.4844 88.3387 39.9635 88.9794 37.125 88.9794C34.1472 88.9711 31.2097 88.291 28.5313 86.9898C28.5313 86.9898 28.0469 86.7606 27.4375 86.4169V102.662C31.5247 104.306 35.8862 105.161 40.2917 105.183C47.125 105.183 53.3646 103.047 57.849 99.1669C62.8854 94.8127 65.5469 88.4585 65.5469 80.7919V39.6356H47.2552V64.021Z" fill="#EB1390"/>
</svg>
