<svg width="87" height="87" viewBox="0 0 87 87" fill="none" xmlns="http://www.w3.org/2000/svg">
<g clip-path="url(#clip0_418_508)">
<path d="M43.5 0C19.4758 0 0 19.4761 0 43.5C0 67.5256 19.4761 87 43.5 87C67.5259 87 87 67.5256 87 43.5C87 19.4778 67.5259 0.00237891 43.4993 0.00237891L43.5 0ZM63.4485 62.7399C62.6692 64.0177 60.9965 64.4228 59.7187 63.6385C49.5054 57.3999 36.6484 55.9869 21.5067 59.4465C20.8055 59.6061 20.0696 59.4808 19.4609 59.0979C18.8521 58.7151 18.4203 58.1062 18.2605 57.405C18.1809 57.058 18.1705 56.6986 18.2299 56.3475C18.2894 55.9964 18.4174 55.6605 18.6068 55.359C18.7962 55.0574 19.0432 54.7962 19.3337 54.5902C19.6241 54.3842 19.9523 54.2375 20.2995 54.1585C36.8703 50.3727 51.0836 52.0026 62.5499 59.0101C63.8278 59.7945 64.2328 61.4621 63.4485 62.7399ZM68.7728 50.8953C67.7907 52.4909 65.7027 52.9949 64.1081 52.0131C52.4155 44.8261 34.5917 42.7445 20.7617 46.9426C18.968 47.4843 17.0737 46.4736 16.5293 44.683C15.989 42.8893 17.0003 40.9984 18.791 40.4533C34.5886 35.6595 54.2282 37.9816 67.6561 46.233C69.2506 47.2152 69.7546 49.3028 68.7728 50.8953ZM69.2299 38.5614C55.21 30.2339 32.0792 29.4679 18.6938 33.531C16.5443 34.1828 14.2711 32.9693 13.6199 30.8198C12.9684 28.6692 14.1807 26.3977 16.3319 25.7442C31.6972 21.0795 57.2412 21.9811 73.3821 31.5633C75.3199 32.7106 75.9534 35.2078 74.8054 37.1385C73.6628 39.0722 71.1589 39.7094 69.2319 38.5614H69.2299Z" fill="#1ED760"/>
</g>
<defs>
<clipPath id="clip0_418_508">
<rect width="87" height="87" fill="white"/>
</clipPath>
</defs>
</svg>
