<svg width="102" height="102" viewBox="0 0 102 102" fill="none" xmlns="http://www.w3.org/2000/svg">
<path d="M0 33.8726V54.9441C0 62.8788 5.5335 68.1233 12.75 68.1233C16.2605 68.1233 19.3885 66.7803 21.6495 64.4258V67.5538H26.6475V33.8726H21.5985V54.6466C21.5985 59.9888 17.986 63.5971 13.3237 63.5971C8.60625 63.5971 5.05325 60.0823 5.05325 54.6466V33.8768H0V33.8726ZM31.62 33.8726V67.5538H36.4225V64.4726C38.6367 66.7336 41.7648 68.1276 45.1775 68.1276C46.8666 68.1433 48.5421 67.8239 50.107 67.1879C51.6718 66.5518 53.095 65.6117 54.2942 64.4221C55.4934 63.2324 56.4447 61.8167 57.0932 60.2569C57.7416 58.6971 58.0743 57.0243 58.072 55.3351C58.0799 53.6419 57.7516 51.9639 57.1062 50.3986C56.4607 48.8332 55.5109 47.4116 54.3119 46.2161C53.1128 45.0206 51.6883 44.075 50.1211 43.4342C48.5538 42.7934 46.8749 42.4701 45.1817 42.4831C43.5595 42.481 41.9532 42.8037 40.4576 43.4322C38.962 44.0606 37.6074 44.9821 36.4735 46.1423V33.8768H31.6158L31.62 33.8726ZM73.5632 42.5341C66.3935 42.5341 60.962 48.3566 60.962 55.2841C60.962 62.5941 66.6315 68.0766 73.9925 68.0766C78.4678 68.0766 82.1227 66.1088 84.575 62.8363L81.0645 60.2396C79.237 62.6918 76.8315 63.8393 73.9925 63.8393C69.8572 63.8393 66.5423 60.8643 65.8665 56.8693H85.8288V55.2841C85.8288 47.9741 80.6353 42.5341 73.5632 42.5341ZM100.317 42.8231C97.6225 42.8231 95.6505 44.0726 94.4477 46.0446V43.0143H89.641V67.5538H94.4945V53.5926C94.4945 49.7931 96.8065 47.3451 99.9812 47.3451H102V42.8188H100.317V42.8231ZM73.4613 46.7671C77.0737 46.7671 80.1083 49.2661 80.9243 53.0146H65.96C66.8228 49.2661 69.853 46.7671 73.4613 46.7671ZM44.8503 46.8181C49.4658 46.8181 53.2653 50.5708 53.2653 55.3351C53.2743 57.5779 52.3935 59.7327 50.816 61.3269C49.2384 62.9212 47.093 63.8247 44.8503 63.8393C43.7346 63.841 42.6296 63.6219 41.5989 63.1948C40.5683 62.7676 39.6324 62.1407 38.8451 61.3502C38.0577 60.5597 37.4346 59.6213 37.0115 58.5889C36.5885 57.5566 36.3738 56.4507 36.38 55.3351C36.3721 54.2187 36.5854 53.1118 37.0074 52.0783C37.4295 51.0447 38.052 50.105 38.839 49.3132C39.626 48.5214 40.562 47.8933 41.593 47.465C42.624 47.0368 43.7296 46.8169 44.846 46.8181H44.8503Z" fill="#111111"/>
</svg>
