<svg viewBox="0 0 215 49" fill="none" xmlns="http://www.w3.org/2000/svg">
<g clip-path="url(#clip0_411_516)">
<path d="M67.1413 7.57388C66.7475 6.10983 65.9792 4.77512 64.9131 3.7027C63.8469 2.63027 62.52 1.85757 61.0646 1.46155C55.7362 0 34.2933 0 34.2933 0C34.2933 0 12.8496 0.0443535 7.52201 1.50591C6.06665 1.90199 4.73985 2.67472 3.67376 3.74714C2.60767 4.81956 1.83949 6.15424 1.44574 7.61823C-0.165915 17.1416 -0.791179 31.6519 1.48984 40.7938C1.88358 42.2578 2.65176 43.5924 3.71785 44.6649C4.78394 45.7373 6.11075 46.51 7.56611 46.9061C12.8941 48.3676 34.3374 48.3676 34.3374 48.3676C34.3374 48.3676 55.7807 48.3676 61.1087 46.9061C62.564 46.51 63.8908 45.7373 64.9569 44.6649C66.023 43.5924 66.7912 42.2578 67.1849 40.7938C68.8844 31.2574 69.4084 16.7559 67.1409 7.5743" fill="#FF0000"/>
<path d="M27.4683 34.5484L45.257 24.1841L27.4683 13.8193V34.5484Z" fill="white"/>
<path d="M206.281 14.0412C208.615 14.0412 210.376 14.4838 211.609 15.3253C212.842 16.167 213.722 17.4959 214.251 19.312C214.779 21.128 214.999 23.608 214.999 26.7972V31.9798H203.683V33.574L203.86 37.9591C203.991 38.9336 204.212 39.6424 204.564 40.0851C204.916 40.5282 205.488 40.7495 206.237 40.7495C207.25 40.7495 207.955 40.3512 208.306 39.5541C208.703 38.7566 208.879 37.4277 208.923 35.6117L214.779 35.9661C214.823 36.2318 214.823 36.5862 214.823 37.0289C214.823 39.8194 214.075 41.9015 212.533 43.2743C210.992 44.6471 208.879 45.356 206.105 45.356C202.758 45.356 200.425 44.2932 199.104 42.2115C197.783 40.1294 197.079 36.8515 197.079 32.4668V27.1073C197.228 19.5777 198.545 14.0631 206.281 14.0412ZM124.867 14.6169V36.8076C124.867 38.1365 124.999 39.111 125.307 39.6867C125.932 40.9181 127.553 40.6034 128.433 39.9968C128.941 39.651 129.351 39.1778 129.622 38.6239V14.6165H136.359V44.8685H131.075L130.503 41.1479H130.371C128.918 43.9383 126.76 45.3555 123.898 45.3555C119.493 45.3446 118.415 42.1519 118.158 38.9095L118.142 38.681C118.11 38.1899 118.091 37.698 118.086 37.2059V14.6169H124.867ZM159.608 14.6169V36.8076C159.608 38.1365 159.74 39.111 160.048 39.6867C160.673 40.9181 162.294 40.6034 163.174 39.9968C163.682 39.651 164.092 39.1778 164.363 38.6239V14.6165H171.1V44.8685H165.816L165.243 41.1479H165.112C163.659 43.9383 161.501 45.3555 158.639 45.3555C154.234 45.3446 153.156 42.1519 152.899 38.9095L152.883 38.681C152.851 38.1899 152.832 37.698 152.827 37.2059V14.6169H159.608ZM105.316 14.0412C107.518 14.0412 109.323 14.4838 110.644 15.414C111.965 16.3442 112.978 17.7618 113.594 19.7104C114.211 21.6594 114.519 24.2724 114.519 27.506V31.8907C114.519 35.1243 114.211 37.6934 113.594 39.642C112.978 41.5914 112.009 43.0086 110.644 43.9388C109.28 44.8246 107.43 45.3116 105.14 45.3116C102.762 45.356 100.913 44.8689 99.5484 43.9831C98.1837 43.053 97.2145 41.6353 96.6425 39.6867C96.0698 37.7377 95.8056 35.1686 95.8056 31.9354V27.5499C95.8056 24.3164 96.1139 21.659 96.7744 19.7099C97.4349 17.717 98.4474 16.2994 99.8566 15.414C101.265 14.5278 103.071 14.0407 105.316 14.0407M181.667 1.90479V17.8501H181.712C182.328 16.6986 183.12 15.7684 184.221 15.0596C185.25 14.3645 186.461 13.9944 187.7 13.9968C189.329 13.9968 190.562 14.4395 191.487 15.2809C192.411 16.1672 193.072 17.54 193.468 19.4447C193.852 21.2898 194.07 23.8416 194.084 27.0595L194.084 27.3734V32.1568C194.084 36.6302 193.512 39.9524 192.455 42.0784C191.355 44.2045 189.681 45.2677 187.391 45.2677C186.115 45.2677 184.97 44.9576 183.913 44.3819C182.979 43.8337 182.204 43.0483 181.667 42.1042L181.579 41.9454H181.447L180.743 44.8246H175.151V1.90521L181.667 1.90479ZM154.72 3.45504V8.94685H148.027V44.8685H141.423V8.94727H134.686V3.45547L154.72 3.45504ZM82.1116 3.45504L82.1158 3.47194C82.18 3.7596 83.0702 7.74085 84.0495 12.3794L84.1268 12.7469L84.2435 13.3024L84.3216 13.6753L84.3607 13.8625L84.4388 14.2376L84.4778 14.4256L84.5555 14.8019L84.6689 15.3523C85.3303 18.5644 85.9614 21.7857 86.3389 24.0954H86.5153C86.8768 22.0235 87.4022 19.372 87.9623 16.6648L88.1093 15.9576C88.1829 15.6034 88.2571 15.2497 88.3319 14.8965L88.4469 14.3487C89.2076 10.761 89.991 7.17834 90.7972 3.60078L90.8098 3.54375L90.83 3.45504H97.5668L89.773 31.4041V44.8246H83.1244V31.448H83.0803L75.3748 3.45462L82.1116 3.45504ZM105.184 18.7359C104.26 18.7359 103.643 19.2233 103.247 20.2422C102.851 21.2611 102.675 22.8109 102.675 24.9817V34.4159C102.675 36.6306 102.851 38.2691 103.203 39.2441C103.555 40.2184 104.216 40.7056 105.184 40.7056C106.109 40.7056 106.769 40.2184 107.166 39.2441C107.562 38.2691 107.738 36.6306 107.738 34.4159V24.9813C107.738 22.8109 107.562 21.2163 107.166 20.2418C106.769 19.2233 106.109 18.7359 105.184 18.7359ZM182.856 19.6221C182.32 20.1205 181.938 20.7351 181.711 21.5035L181.667 21.6594V38.8449C182.213 39.775 182.989 40.3951 184.353 40.4395C185.058 40.4395 185.63 40.1738 186.071 39.6424C186.511 39.111 186.819 38.225 186.995 36.9846C187.164 35.7942 187.252 34.1547 187.259 32.066V27.8604C187.259 25.4687 187.171 23.6528 187.039 22.3682C186.863 21.0836 186.643 20.1535 186.247 19.6221C185.48 18.5145 183.825 18.528 182.856 19.6221ZM206.149 18.6032C205.4 18.6474 204.872 18.8689 204.564 19.2677C204.212 19.7104 203.991 20.3748 203.86 21.3493C203.73 22.304 203.685 25.6411 203.683 25.7745V27.9491H208.615V26.0314V26.0681C208.612 26.7385 208.598 25.6791 208.568 24.3785L208.563 24.2036C208.536 23.0605 208.495 21.7861 208.439 21.3493C208.306 20.3305 208.086 19.6217 207.734 19.2233C207.382 18.8246 206.854 18.6032 206.149 18.6032" fill="#282828"/>
</g>
<defs>
<clipPath id="clip0_411_516">
<rect width="215" height="49" fill="white"/>
</clipPath>
</defs>
</svg>
