<svg width="45" height="45" viewBox="0 0 45 45" fill="none" xmlns="http://www.w3.org/2000/svg">
<g clip-path="url(#clip0_909_496)">
<path d="M22.5 0.703125C10.462 0.703125 0.703125 10.4619 0.703125 22.5C0.703125 34.5381 10.462 44.2969 22.5 44.2969C34.538 44.2969 44.2969 34.538 44.2969 22.5C44.2969 10.462 34.5381 0.703125 22.5 0.703125ZM33.9353 11.0647C39.6875 16.817 40.0876 25.609 35.7526 31.775L13.2249 9.2475C19.3952 4.90957 28.1862 5.31571 33.9353 11.0647ZM11.0647 33.9353C5.31246 28.183 4.91238 19.391 9.24741 13.225L31.7751 35.7525C25.6049 40.0904 16.8138 39.6844 11.0647 33.9353Z" fill="#E33629"/>
</g>
<defs>
<clipPath id="clip0_909_496">
<rect width="45" height="45" fill="white"/>
</clipPath>
</defs>
</svg>
