<svg width="44" height="44" viewBox="0 0 44 44" fill="none" xmlns="http://www.w3.org/2000/svg">
<path d="M43.625 22.3125C43.625 34.0831 34.0831 43.625 22.3125 43.625C10.5419 43.625 1 34.0831 1 22.3125C1 10.5419 10.5419 1 22.3125 1C34.0831 1 43.625 10.5419 43.625 22.3125ZM19.8473 33.5973L35.6598 17.7848C36.1967 17.2479 36.1967 16.3772 35.6598 15.8403L33.7153 13.8958C33.1784 13.3588 32.3077 13.3588 31.7707 13.8958L18.875 26.7914L12.8543 20.7707C12.3174 20.2338 11.4467 20.2338 10.9097 20.7707L8.9652 22.7152C8.42827 23.2521 8.42827 24.1228 8.9652 24.6597L17.9027 33.5972C18.4397 34.1342 19.3103 34.1342 19.8473 33.5973Z" fill="#319F43"/>
</svg>
