<svg width="49" height="49" viewBox="0 0 49 49" fill="none" xmlns="http://www.w3.org/2000/svg">
<mask id="mask0_910_508" style="mask-type:alpha" maskUnits="userSpaceOnUse" x="0" y="0" width="49" height="49">
<rect width="49" height="49" fill="#D9D9D9"/>
</mask>
<g mask="url(#mask0_910_508)">
<path d="M36.7498 40.8333V34.7083H30.6248V30.625H36.7498V24.5H40.8332V30.625H46.9582V34.7083H40.8332V40.8333H36.7498ZM6.12484 42.875C5.00192 42.875 4.04064 42.4752 3.24098 41.6755C2.44133 40.8759 2.0415 39.9146 2.0415 38.7917V10.2083C2.0415 9.08542 2.44133 8.12413 3.24098 7.32448C4.04064 6.52483 5.00192 6.125 6.12484 6.125H34.7082C35.8311 6.125 36.7924 6.52483 37.592 7.32448C38.3917 8.12413 38.7915 9.08542 38.7915 10.2083V20.4167H34.7082V16.3333H6.12484V38.7917H32.6665V42.875H6.12484ZM6.12484 12.25H34.7082V10.2083H6.12484V12.25Z" fill="#C49C3C"/>
</g>
</svg>
